<?xml version="1.0" standalone="no"?>
<!DOCTYPE svg PUBLIC "-//W3C//DTD SVG 20010904//EN"
 "http://www.w3.org/TR/2001/REC-SVG-20010904/DTD/svg10.dtd">
<svg version="1.0" xmlns="http://www.w3.org/2000/svg"
 width="150.000000pt" height="150.000000pt" viewBox="0 0 150.000000 150.000000"
 preserveAspectRatio="xMidYMid meet">

<g transform="translate(0.000000,150.000000) scale(0.100000,-0.100000)"
fill="#000000" stroke="none">
<path d="M441 1375 c-88 -25 -123 -46 -191 -115 -107 -109 -168 -262 -177
-446 -9 -179 39 -335 136 -446 74 -84 248 -189 396 -239 59 -20 89 -24 190
-23 198 1 319 46 436 163 83 83 132 159 163 253 51 153 44 292 -25 457 -50
122 -107 195 -206 265 -119 85 -224 116 -423 127 -85 4 -175 11 -200 13 -26 3
-68 -1 -99 -9z m106 -91 c5 -14 16 -16 77 -9 145 15 276 -7 403 -66 90 -43
197 -149 241 -239 65 -132 77 -292 32 -413 -39 -104 -176 -256 -273 -305 -67
-33 -189 -55 -282 -50 -69 4 -95 11 -188 53 -181 81 -288 168 -342 280 -42 87
-58 169 -52 270 15 235 147 436 316 481 61 17 61 17 68 -2z"/>
<path d="M386 1161 c-21 -23 -36 -83 -29 -111 7 -26 52 -27 83 -2 26 21 39 94
20 117 -17 21 -53 19 -74 -4z"/>
<path d="M1066 1018 c-22 -30 -21 -114 0 -122 25 -9 31 -8 63 20 23 19 31 34
31 58 0 59 -63 89 -94 44z"/>
<path d="M440 602 c-17 -14 -21 -25 -17 -44 9 -36 127 -142 200 -181 60 -31
66 -32 177 -32 96 1 123 4 162 22 109 50 146 104 94 138 -22 15 -28 13 -104
-26 -73 -39 -87 -42 -154 -42 -86 0 -111 11 -199 85 -70 60 -120 98 -130 98
-4 0 -17 -8 -29 -18z"/>
</g>
</svg>
